<mxfile host="app.diagrams.net" agent="Mozilla/5.0 (Windows NT 10.0; Win64; x64) AppleWebKit/537.36 (KHTML, like Gecko) Chrome/138.0.0.0 Safari/537.36 Edg/138.0.0.0" version="28.0.4">
  <diagram name="character目录" id="oOjw0yN4-hZVKV7NDtH4">
    <mxGraphModel dx="2073" dy="716" grid="1" gridSize="10" guides="1" tooltips="1" connect="1" arrows="1" fold="1" page="1" pageScale="1" pageWidth="827" pageHeight="1169" math="0" shadow="0">
      <root>
        <mxCell id="0" />
        <mxCell id="1" parent="0" />
        <mxCell id="XCQQB1KWgZVBoyZFV7uq-1" value="&lt;p style=&quot;margin:0px;margin-top:4px;text-align:center;&quot;&gt;&lt;span style=&quot;color: rgb(135, 195, 255); background-color: rgb(10, 10, 10); font-family: Consolas, &amp;quot;Courier New&amp;quot;, monospace; white-space: pre; text-align: left;&quot;&gt;ALyraCharacter：&lt;/span&gt;&lt;span style=&quot;color: rgb(239, 176, 128); background-color: rgb(10, 10, 10); font-family: Consolas, &amp;quot;Courier New&amp;quot;, monospace; white-space: pre; text-align: left;&quot;&gt;AModularCharacter、&lt;/span&gt;&lt;/p&gt;&lt;p style=&quot;margin:0px;margin-top:4px;text-align:center;&quot;&gt;&lt;span style=&quot;color: rgb(239, 176, 128); background-color: rgb(10, 10, 10); font-family: Consolas, &amp;quot;Courier New&amp;quot;, monospace; white-space: pre; text-align: left;&quot;&gt;&lt;/span&gt;&lt;/p&gt;&lt;div style=&quot;text-align: center; color: rgb(216, 222, 233); background-color: rgb(10, 10, 10); font-family: Consolas, &amp;quot;Courier New&amp;quot;, monospace; line-height: 16px; white-space: pre;&quot;&gt;&lt;span style=&quot;color: rgb(239, 176, 128);&quot;&gt;IAbilitySystemInterface、&lt;/span&gt;&lt;span style=&quot;color: rgb(239, 176, 128); text-align: left;&quot;&gt;IGameplayCueInterface、&lt;/span&gt;&lt;/div&gt;&lt;div style=&quot;text-align: center; color: rgb(216, 222, 233); background-color: rgb(10, 10, 10); font-family: Consolas, &amp;quot;Courier New&amp;quot;, monospace; line-height: 16px; white-space: pre;&quot;&gt;&lt;span style=&quot;color: rgb(239, 176, 128); text-align: left;&quot;&gt;、IGameplayTagAssetInterface、&lt;/span&gt;&lt;span style=&quot;color: rgb(239, 176, 128); text-align: left;&quot;&gt;ILyraTeamAgentInterface&lt;/span&gt;&lt;/div&gt;&lt;hr size=&quot;1&quot; style=&quot;border-style:solid;&quot;&gt;&lt;p style=&quot;margin:0px;margin-left:4px;&quot;&gt;+&amp;nbsp;&lt;span style=&quot;scrollbar-color: var(--vscode-scrollbarSlider-background,#424242) var(--vscode-editor-background,#1e1e1e); color: rgb(216, 222, 233); font-family: &amp;quot;Segoe WPC&amp;quot;, &amp;quot;Segoe UI&amp;quot;, sans-serif; font-size: 13px; font-weight: 600; background-color: rgb(10, 10, 10);&quot;&gt;Pawn&lt;/span&gt;&lt;span style=&quot;scrollbar-color: var(--vscode-scrollbarSlider-background,#424242) var(--vscode-editor-background,#1e1e1e); color: rgb(216, 222, 233); font-family: &amp;quot;Segoe WPC&amp;quot;, &amp;quot;Segoe UI&amp;quot;, sans-serif; font-size: 13px; font-weight: 600; background-color: rgb(10, 10, 10);&quot;&gt;Ext&lt;/span&gt;&lt;span style=&quot;scrollbar-color: var(--vscode-scrollbarSlider-background,#424242) var(--vscode-editor-background,#1e1e1e); color: rgb(216, 222, 233); font-family: &amp;quot;Segoe WPC&amp;quot;, &amp;quot;Segoe UI&amp;quot;, sans-serif; font-size: 13px; font-weight: 600; background-color: rgb(10, 10, 10);&quot;&gt;Component&lt;/span&gt;:&amp;nbsp;&lt;span style=&quot;background-color: rgb(10, 10, 10); color: rgb(216, 222, 233); font-family: Consolas, &amp;quot;Courier New&amp;quot;, monospace; font-size: 14px; white-space: pre;&quot;&gt;TObjectPtr&lt;/span&gt;&lt;span style=&quot;font-family: Consolas, &amp;quot;Courier New&amp;quot;, monospace; font-size: 14px; white-space: pre; color: rgb(131, 214, 197);&quot;&gt;&amp;lt;&lt;/span&gt;&lt;span style=&quot;background-color: rgb(10, 10, 10); color: rgb(216, 222, 233); font-family: Consolas, &amp;quot;Courier New&amp;quot;, monospace; font-size: 14px; white-space: pre;&quot;&gt;ULyraPawnExtensionComponent&lt;/span&gt;&lt;span style=&quot;font-family: Consolas, &amp;quot;Courier New&amp;quot;, monospace; font-size: 14px; white-space: pre; color: rgb(131, 214, 197);&quot;&gt;&amp;gt;&lt;/span&gt;&lt;/p&gt;&lt;p style=&quot;margin:0px;margin-left:4px;&quot;&gt;&lt;span style=&quot;font-family: Consolas, &amp;quot;Courier New&amp;quot;, monospace; font-size: 14px; white-space: pre; color: rgb(131, 214, 197);&quot;&gt;+&lt;/span&gt;&lt;span style=&quot;background-color: rgb(10, 10, 10); color: rgb(216, 222, 233); font-family: Consolas, &amp;quot;Courier New&amp;quot;, monospace; font-size: 14px; white-space: pre;&quot;&gt;HealthComponent:&lt;/span&gt;&lt;span style=&quot;background-color: rgb(10, 10, 10); color: rgb(216, 222, 233); font-family: Consolas, &amp;quot;Courier New&amp;quot;, monospace; font-size: 14px; white-space: pre;&quot;&gt;TObjectPtr&lt;/span&gt;&lt;span style=&quot;font-family: Consolas, &amp;quot;Courier New&amp;quot;, monospace; font-size: 14px; white-space: pre; color: rgb(131, 214, 197);&quot;&gt;&amp;lt;&lt;/span&gt;&lt;span style=&quot;background-color: rgb(10, 10, 10); color: rgb(216, 222, 233); font-family: Consolas, &amp;quot;Courier New&amp;quot;, monospace; font-size: 14px; white-space: pre;&quot;&gt;ULyraHealthComponent&lt;/span&gt;&lt;span style=&quot;font-family: Consolas, &amp;quot;Courier New&amp;quot;, monospace; font-size: 14px; white-space: pre; color: rgb(131, 214, 197);&quot;&gt;&amp;gt;&lt;/span&gt;&lt;/p&gt;&lt;p style=&quot;margin:0px;margin-left:4px;&quot;&gt;&lt;span style=&quot;font-family: Consolas, &amp;quot;Courier New&amp;quot;, monospace; font-size: 14px; white-space: pre; color: rgb(131, 214, 197);&quot;&gt;+&lt;/span&gt;&lt;span style=&quot;background-color: rgb(10, 10, 10); color: rgb(216, 222, 233); font-family: Consolas, &amp;quot;Courier New&amp;quot;, monospace; font-size: 14px; white-space: pre;&quot;&gt;CameraComponent:&lt;/span&gt;&lt;span style=&quot;background-color: rgb(10, 10, 10); color: rgb(216, 222, 233); font-family: Consolas, &amp;quot;Courier New&amp;quot;, monospace; font-size: 14px; white-space: pre;&quot;&gt;TObjectPtr&lt;/span&gt;&lt;span style=&quot;font-family: Consolas, &amp;quot;Courier New&amp;quot;, monospace; font-size: 14px; white-space: pre; color: rgb(131, 214, 197);&quot;&gt;&amp;lt;&lt;/span&gt;&lt;span style=&quot;background-color: rgb(10, 10, 10); color: rgb(216, 222, 233); font-family: Consolas, &amp;quot;Courier New&amp;quot;, monospace; font-size: 14px; white-space: pre;&quot;&gt;ULyraCameraComponent&lt;/span&gt;&lt;span style=&quot;font-family: Consolas, &amp;quot;Courier New&amp;quot;, monospace; font-size: 14px; white-space: pre; color: rgb(131, 214, 197);&quot;&gt;&amp;gt;&lt;/span&gt;&lt;/p&gt;&lt;p style=&quot;margin:0px;margin-left:4px;&quot;&gt;&lt;span style=&quot;font-family: Consolas, &amp;quot;Courier New&amp;quot;, monospace; font-size: 14px; white-space: pre; color: rgb(131, 214, 197);&quot;&gt;+&lt;/span&gt;&lt;span style=&quot;background-color: rgb(10, 10, 10); color: rgb(216, 222, 233); font-family: Consolas, &amp;quot;Courier New&amp;quot;, monospace; font-size: 14px; white-space: pre;&quot;&gt;ReplicatedAcceleration:&lt;/span&gt;&lt;span style=&quot;background-color: rgb(10, 10, 10); color: rgb(216, 222, 233); font-family: Consolas, &amp;quot;Courier New&amp;quot;, monospace; font-size: 14px; white-space: pre;&quot;&gt;FLyraReplicatedAcceleration&lt;/span&gt;&lt;/p&gt;&lt;p style=&quot;margin:0px;margin-left:4px;&quot;&gt;&lt;span style=&quot;background-color: rgb(10, 10, 10); color: rgb(216, 222, 233); font-family: Consolas, &amp;quot;Courier New&amp;quot;, monospace; font-size: 14px; white-space: pre;&quot;&gt;+&lt;/span&gt;&lt;span style=&quot;background-color: rgb(10, 10, 10); color: rgb(216, 222, 233); font-family: Consolas, &amp;quot;Courier New&amp;quot;, monospace; font-size: 14px; white-space: pre;&quot;&gt;MyTeamID:&lt;/span&gt;&lt;span style=&quot;background-color: rgb(10, 10, 10); color: rgb(216, 222, 233); font-family: Consolas, &amp;quot;Courier New&amp;quot;, monospace; font-size: 14px; white-space: pre;&quot;&gt;FGenericTeamId&lt;/span&gt;&lt;/p&gt;&lt;p style=&quot;margin:0px;margin-left:4px;&quot;&gt;&lt;span style=&quot;background-color: rgb(10, 10, 10); color: rgb(216, 222, 233); font-family: Consolas, &amp;quot;Courier New&amp;quot;, monospace; font-size: 14px; white-space: pre;&quot;&gt;+&lt;/span&gt;&lt;span style=&quot;background-color: rgb(10, 10, 10); color: rgb(216, 222, 233); font-family: Consolas, &amp;quot;Courier New&amp;quot;, monospace; font-size: 14px; white-space: pre;&quot;&gt;OnTeamChangedDelegate:&lt;/span&gt;&lt;span style=&quot;background-color: rgb(10, 10, 10); color: rgb(216, 222, 233); font-family: Consolas, &amp;quot;Courier New&amp;quot;, monospace; font-size: 14px; white-space: pre;&quot;&gt;FOnLyraTeamIndexChangedDelegate&lt;/span&gt;&lt;/p&gt;&lt;p style=&quot;margin:0px;margin-left:4px;&quot;&gt;&lt;span style=&quot;background-color: rgb(10, 10, 10); color: rgb(216, 222, 233); font-family: Consolas, &amp;quot;Courier New&amp;quot;, monospace; font-size: 14px; white-space: pre;&quot;&gt;+&lt;/span&gt;&lt;span style=&quot;background-color: rgb(10, 10, 10); color: rgb(216, 222, 233); font-family: Consolas, &amp;quot;Courier New&amp;quot;, monospace; font-size: 14px; white-space: pre;&quot;&gt;LastSharedReplication:&lt;/span&gt;&lt;span style=&quot;background-color: rgb(10, 10, 10); color: rgb(216, 222, 233); font-family: Consolas, &amp;quot;Courier New&amp;quot;, monospace; font-size: 14px; white-space: pre;&quot;&gt;FSharedRepMovement&lt;/span&gt;&lt;/p&gt;&lt;hr size=&quot;1&quot; style=&quot;border-style:solid;&quot;&gt;&lt;p style=&quot;margin:0px;margin-left:4px;&quot;&gt;+ method(): Type&lt;/p&gt;" style="verticalAlign=top;align=left;overflow=fill;html=1;whiteSpace=wrap;" vertex="1" parent="1">
          <mxGeometry x="60" y="547.5" width="490" height="320" as="geometry" />
        </mxCell>
        <mxCell id="XCQQB1KWgZVBoyZFV7uq-2" value="&lt;p style=&quot;margin:0px;margin-top:4px;text-align:center;&quot;&gt;&lt;span style=&quot;color: rgb(239, 176, 128); background-color: rgb(10, 10, 10); font-family: Consolas, &amp;quot;Courier New&amp;quot;, monospace; white-space: pre; text-align: left;&quot;&gt;AModularCharacter&lt;b&gt;：&lt;/b&gt;&lt;/span&gt;&lt;span style=&quot;background-color: rgb(10, 10, 10); color: rgb(216, 222, 233); font-family: &amp;quot;Segoe WPC&amp;quot;, &amp;quot;Segoe UI&amp;quot;, sans-serif; font-size: 13px; text-align: left;&quot;&gt;ACharacter&lt;/span&gt;&lt;/p&gt;&lt;hr size=&quot;1&quot; style=&quot;border-style:solid;&quot;&gt;&lt;p style=&quot;margin:0px;margin-left:4px;&quot;&gt;+ field: Type&lt;/p&gt;&lt;hr size=&quot;1&quot; style=&quot;border-style:solid;&quot;&gt;&lt;p style=&quot;margin:0px;margin-left:4px;&quot;&gt;+ method(): Type&lt;/p&gt;" style="verticalAlign=top;align=left;overflow=fill;html=1;whiteSpace=wrap;" vertex="1" parent="1">
          <mxGeometry x="-370" y="300" width="230" height="90" as="geometry" />
        </mxCell>
        <mxCell id="XCQQB1KWgZVBoyZFV7uq-3" value="&lt;p style=&quot;margin:0px;margin-top:4px;text-align:center;&quot;&gt;&lt;span style=&quot;color: rgb(239, 176, 128); background-color: rgb(10, 10, 10); font-family: Consolas, &amp;quot;Courier New&amp;quot;, monospace; white-space: pre; text-align: left;&quot;&gt;IAbilitySystemInterface&lt;/span&gt;&lt;/p&gt;&lt;p style=&quot;margin:0px;margin-top:4px;text-align:center;&quot;&gt;&lt;span style=&quot;color: rgb(239, 176, 128); background-color: rgb(10, 10, 10); font-family: Consolas, &amp;quot;Courier New&amp;quot;, monospace; white-space: pre; text-align: left;&quot;&gt;&lt;b&gt;支持GAS&lt;/b&gt;&lt;/span&gt;&lt;/p&gt;&lt;hr size=&quot;1&quot; style=&quot;border-style:solid;&quot;&gt;&lt;p style=&quot;margin:0px;margin-left:4px;&quot;&gt;+ field: Type&lt;/p&gt;&lt;hr size=&quot;1&quot; style=&quot;border-style:solid;&quot;&gt;&lt;p style=&quot;margin:0px;margin-left:4px;&quot;&gt;+ method(): Type&lt;/p&gt;" style="verticalAlign=top;align=left;overflow=fill;html=1;whiteSpace=wrap;" vertex="1" parent="1">
          <mxGeometry x="-360" y="460" width="210" height="120" as="geometry" />
        </mxCell>
        <mxCell id="XCQQB1KWgZVBoyZFV7uq-8" value="&lt;p style=&quot;margin:0px;margin-top:4px;text-align:center;&quot;&gt;&lt;span style=&quot;color: rgb(239, 176, 128); background-color: rgb(10, 10, 10); font-family: Consolas, &amp;quot;Courier New&amp;quot;, monospace; white-space: pre; text-align: left;&quot;&gt;IGameplayCueInterface&lt;/span&gt;&lt;/p&gt;&lt;p style=&quot;text-align: center; margin: 4px 0px 0px;&quot;&gt;&lt;font face=&quot;Consolas, Courier New, monospace&quot; color=&quot;#efb080&quot;&gt;&lt;span style=&quot;white-space: pre; background-color: rgb(10, 10, 10);&quot;&gt;&lt;b&gt;用于&lt;/b&gt;&lt;/span&gt;&lt;/font&gt;&lt;span style=&quot;background-color: rgb(10, 10, 10); color: rgb(216, 222, 233); font-family: &amp;quot;Segoe WPC&amp;quot;, &amp;quot;Segoe UI&amp;quot;, sans-serif; font-size: 13px; text-align: left;&quot;&gt;Cue&lt;/span&gt;&lt;span style=&quot;background-color: rgb(10, 10, 10); color: rgb(216, 222, 233); font-family: &amp;quot;Segoe WPC&amp;quot;, &amp;quot;Segoe UI&amp;quot;, sans-serif; font-size: 13px; text-align: left;&quot;&gt;&amp;nbsp;&lt;/span&gt;&lt;/p&gt;&lt;hr size=&quot;1&quot; style=&quot;border-style:solid;&quot;&gt;&lt;p style=&quot;margin:0px;margin-left:4px;&quot;&gt;+ field: Type&lt;/p&gt;&lt;hr size=&quot;1&quot; style=&quot;border-style:solid;&quot;&gt;&lt;p style=&quot;margin:0px;margin-left:4px;&quot;&gt;+ method(): Type&lt;/p&gt;" style="verticalAlign=top;align=left;overflow=fill;html=1;whiteSpace=wrap;" vertex="1" parent="1">
          <mxGeometry x="-335" y="660" width="160" height="95" as="geometry" />
        </mxCell>
        <mxCell id="XCQQB1KWgZVBoyZFV7uq-9" value="&lt;p style=&quot;margin:0px;margin-top:4px;text-align:center;&quot;&gt;&lt;span style=&quot;color: rgb(239, 176, 128); background-color: rgb(10, 10, 10); font-family: Consolas, &amp;quot;Courier New&amp;quot;, monospace; white-space: pre; text-align: left;&quot;&gt;IGameplayTagAssetInterface&lt;/span&gt;&lt;/p&gt;&lt;p style=&quot;text-align: center; margin: 4px 0px 0px;&quot;&gt;&lt;font face=&quot;Consolas, Courier New, monospace&quot; color=&quot;#efb080&quot;&gt;&lt;span style=&quot;white-space: pre; background-color: rgb(10, 10, 10);&quot;&gt;&lt;b&gt;用于&lt;/b&gt;&lt;/span&gt;&lt;/font&gt;&lt;span style=&quot;text-align: left; scrollbar-color: var(--vscode-scrollbarSlider-background,#424242) var(--vscode-editor-background,#1e1e1e); color: rgb(216, 222, 233); font-family: &amp;quot;Segoe WPC&amp;quot;, &amp;quot;Segoe UI&amp;quot;, sans-serif; font-size: 13px; background-color: rgb(10, 10, 10);&quot;&gt;Gameplay&lt;/span&gt;&lt;span style=&quot;text-align: left; scrollbar-color: var(--vscode-scrollbarSlider-background,#424242) var(--vscode-editor-background,#1e1e1e); color: rgb(216, 222, 233); font-family: &amp;quot;Segoe WPC&amp;quot;, &amp;quot;Segoe UI&amp;quot;, sans-serif; font-size: 13px; background-color: rgb(10, 10, 10);&quot;&gt;Tag&lt;/span&gt;&lt;span style=&quot;text-align: left; scrollbar-color: var(--vscode-scrollbarSlider-background,#424242) var(--vscode-editor-background,#1e1e1e); color: rgb(216, 222, 233); font-family: &amp;quot;Segoe WPC&amp;quot;, &amp;quot;Segoe UI&amp;quot;, sans-serif; font-size: 13px; background-color: rgb(10, 10, 10);&quot;&gt;&amp;nbsp;&lt;/span&gt;&lt;/p&gt;&lt;hr size=&quot;1&quot; style=&quot;border-style:solid;&quot;&gt;&lt;p style=&quot;margin:0px;margin-left:4px;&quot;&gt;+ field: Type&lt;/p&gt;&lt;hr size=&quot;1&quot; style=&quot;border-style:solid;&quot;&gt;&lt;p style=&quot;margin:0px;margin-left:4px;&quot;&gt;+ method(): Type&lt;/p&gt;" style="verticalAlign=top;align=left;overflow=fill;html=1;whiteSpace=wrap;" vertex="1" parent="1">
          <mxGeometry x="-347.5" y="840" width="185" height="95" as="geometry" />
        </mxCell>
        <mxCell id="XCQQB1KWgZVBoyZFV7uq-10" value="&lt;p style=&quot;margin:0px;margin-top:4px;text-align:center;&quot;&gt;&lt;span style=&quot;color: rgb(239, 176, 128); background-color: rgb(10, 10, 10); font-family: Consolas, &amp;quot;Courier New&amp;quot;, monospace; white-space: pre; text-align: left;&quot;&gt;ILyraTeamAgentInterface&lt;/span&gt;&lt;/p&gt;&lt;p style=&quot;text-align: center; margin: 4px 0px 0px;&quot;&gt;&lt;span style=&quot;color: rgb(216, 222, 233); font-family: &amp;quot;Segoe WPC&amp;quot;, &amp;quot;Segoe UI&amp;quot;, sans-serif; font-size: 13px; text-align: left; background-color: rgb(10, 10, 10);&quot;&gt;自定义的团队系统接口&lt;/span&gt;&lt;/p&gt;&lt;hr size=&quot;1&quot; style=&quot;border-style:solid;&quot;&gt;&lt;p style=&quot;margin:0px;margin-left:4px;&quot;&gt;+ field: Type&lt;/p&gt;&lt;hr size=&quot;1&quot; style=&quot;border-style:solid;&quot;&gt;&lt;p style=&quot;margin:0px;margin-left:4px;&quot;&gt;+ method(): Type&lt;/p&gt;" style="verticalAlign=top;align=left;overflow=fill;html=1;whiteSpace=wrap;" vertex="1" parent="1">
          <mxGeometry x="-347.5" y="1020" width="185" height="95" as="geometry" />
        </mxCell>
        <mxCell id="XCQQB1KWgZVBoyZFV7uq-11" value="Extends" style="endArrow=block;endSize=16;endFill=0;html=1;rounded=0;exitX=0;exitY=0.5;exitDx=0;exitDy=0;entryX=1;entryY=0.5;entryDx=0;entryDy=0;" edge="1" parent="1" source="XCQQB1KWgZVBoyZFV7uq-1" target="XCQQB1KWgZVBoyZFV7uq-2">
          <mxGeometry width="160" relative="1" as="geometry">
            <mxPoint x="-80" y="810" as="sourcePoint" />
            <mxPoint x="80" y="810" as="targetPoint" />
          </mxGeometry>
        </mxCell>
        <mxCell id="XCQQB1KWgZVBoyZFV7uq-12" value="Extends" style="endArrow=block;endSize=16;endFill=0;html=1;rounded=0;entryX=1;entryY=0.5;entryDx=0;entryDy=0;exitX=0;exitY=0.5;exitDx=0;exitDy=0;" edge="1" parent="1" source="XCQQB1KWgZVBoyZFV7uq-1" target="XCQQB1KWgZVBoyZFV7uq-3">
          <mxGeometry width="160" relative="1" as="geometry">
            <mxPoint x="-10" y="800" as="sourcePoint" />
            <mxPoint x="80" y="810" as="targetPoint" />
          </mxGeometry>
        </mxCell>
        <mxCell id="XCQQB1KWgZVBoyZFV7uq-13" value="Extends" style="endArrow=block;endSize=16;endFill=0;html=1;rounded=0;entryX=1;entryY=0.5;entryDx=0;entryDy=0;exitX=0;exitY=0.5;exitDx=0;exitDy=0;" edge="1" parent="1" source="XCQQB1KWgZVBoyZFV7uq-1" target="XCQQB1KWgZVBoyZFV7uq-8">
          <mxGeometry width="160" relative="1" as="geometry">
            <mxPoint x="-40" y="850" as="sourcePoint" />
            <mxPoint x="-140" y="700" as="targetPoint" />
          </mxGeometry>
        </mxCell>
        <mxCell id="XCQQB1KWgZVBoyZFV7uq-16" value="Extends" style="endArrow=block;endSize=16;endFill=0;html=1;rounded=0;entryX=1;entryY=0.75;entryDx=0;entryDy=0;exitX=0;exitY=0.5;exitDx=0;exitDy=0;" edge="1" parent="1" source="XCQQB1KWgZVBoyZFV7uq-1" target="XCQQB1KWgZVBoyZFV7uq-9">
          <mxGeometry width="160" relative="1" as="geometry">
            <mxPoint x="-10" y="730" as="sourcePoint" />
            <mxPoint x="-110" y="720" as="targetPoint" />
          </mxGeometry>
        </mxCell>
        <mxCell id="XCQQB1KWgZVBoyZFV7uq-17" value="Extends" style="endArrow=block;endSize=16;endFill=0;html=1;rounded=0;exitX=0;exitY=0.5;exitDx=0;exitDy=0;entryX=1;entryY=0.5;entryDx=0;entryDy=0;" edge="1" parent="1" source="XCQQB1KWgZVBoyZFV7uq-1" target="XCQQB1KWgZVBoyZFV7uq-10">
          <mxGeometry width="160" relative="1" as="geometry">
            <mxPoint x="-70" y="819.9999999999998" as="sourcePoint" />
            <mxPoint x="-160" y="1090" as="targetPoint" />
          </mxGeometry>
        </mxCell>
        <mxCell id="XCQQB1KWgZVBoyZFV7uq-18" value="&lt;p style=&quot;margin:0px;margin-top:4px;text-align:center;&quot;&gt;&lt;span style=&quot;background-color: rgb(10, 10, 10); color: rgb(216, 222, 233); font-family: Consolas, &amp;quot;Courier New&amp;quot;, monospace; font-size: 14px; white-space: pre; text-align: left;&quot;&gt;ULyraPawnExtensionComponent&lt;/span&gt;&lt;/p&gt;&lt;p style=&quot;margin:0px;margin-top:4px;text-align:center;&quot;&gt;&lt;span style=&quot;background-color: rgb(10, 10, 10); color: rgb(216, 222, 233); font-family: Consolas, &amp;quot;Courier New&amp;quot;, monospace; font-size: 14px; white-space: pre; text-align: left;&quot;&gt;&lt;span style=&quot;scrollbar-color: var(--vscode-scrollbarSlider-background,#424242) var(--vscode-editor-background,#1e1e1e); font-family: &amp;quot;Segoe WPC&amp;quot;, &amp;quot;Segoe UI&amp;quot;, sans-serif; font-size: 13px; white-space: normal;&quot;&gt;角色&lt;/span&gt;&lt;span style=&quot;scrollbar-color: var(--vscode-scrollbarSlider-background,#424242) var(--vscode-editor-background,#1e1e1e); font-family: &amp;quot;Segoe WPC&amp;quot;, &amp;quot;Segoe UI&amp;quot;, sans-serif; font-size: 13px; white-space: normal;&quot;&gt;扩&lt;/span&gt;&lt;span style=&quot;scrollbar-color: var(--vscode-scrollbarSlider-background,#424242) var(--vscode-editor-background,#1e1e1e); font-family: &amp;quot;Segoe WPC&amp;quot;, &amp;quot;Segoe UI&amp;quot;, sans-serif; font-size: 13px; white-space: normal;&quot;&gt;展组件&lt;/span&gt;&lt;span style=&quot;scrollbar-color: var(--vscode-scrollbarSlider-background,#424242) var(--vscode-editor-background,#1e1e1e); font-family: &amp;quot;Segoe WPC&amp;quot;, &amp;quot;Segoe UI&amp;quot;, sans-serif; font-size: 13px; white-space: normal;&quot;&gt;，通常用于管理&lt;/span&gt;&lt;span style=&quot;scrollbar-color: var(--vscode-scrollbarSlider-background,#424242) var(--vscode-editor-background,#1e1e1e); font-family: &amp;quot;Segoe WPC&amp;quot;, &amp;quot;Segoe UI&amp;quot;, sans-serif; font-size: 13px; white-space: normal;&quot;&gt;角色的&lt;/span&gt;&lt;span style=&quot;scrollbar-color: var(--vscode-scrollbarSlider-background,#424242) var(--vscode-editor-background,#1e1e1e); font-family: &amp;quot;Segoe WPC&amp;quot;, &amp;quot;Segoe UI&amp;quot;, sans-serif; font-size: 13px; white-space: normal;&quot;&gt;自&lt;/span&gt;&lt;span style=&quot;scrollbar-color: var(--vscode-scrollbarSlider-background,#424242) var(--vscode-editor-background,#1e1e1e); font-family: &amp;quot;Segoe WPC&amp;quot;, &amp;quot;Segoe UI&amp;quot;, sans-serif; font-size: 13px; white-space: normal;&quot;&gt;定义&lt;/span&gt;&lt;span style=&quot;scrollbar-color: var(--vscode-scrollbarSlider-background,#424242) var(--vscode-editor-background,#1e1e1e); font-family: &amp;quot;Segoe WPC&amp;quot;, &amp;quot;Segoe UI&amp;quot;, sans-serif; font-size: 13px; white-space: normal;&quot;&gt;功能&lt;/span&gt;&lt;/span&gt;&lt;/p&gt;&lt;hr size=&quot;1&quot; style=&quot;border-style:solid;&quot;&gt;&lt;p style=&quot;margin:0px;margin-left:4px;&quot;&gt;+ field: Type&lt;/p&gt;&lt;hr size=&quot;1&quot; style=&quot;border-style:solid;&quot;&gt;&lt;p style=&quot;margin:0px;margin-left:4px;&quot;&gt;+ method(): Type&lt;/p&gt;" style="verticalAlign=top;align=left;overflow=fill;html=1;whiteSpace=wrap;" vertex="1" parent="1">
          <mxGeometry x="790" y="40" width="280" height="150" as="geometry" />
        </mxCell>
        <mxCell id="XCQQB1KWgZVBoyZFV7uq-19" value="&lt;p style=&quot;margin:0px;margin-top:4px;text-align:center;&quot;&gt;&lt;span style=&quot;background-color: rgb(10, 10, 10); color: rgb(216, 222, 233); font-family: Consolas, &amp;quot;Courier New&amp;quot;, monospace; font-size: 14px; white-space: pre; text-align: left;&quot;&gt;&lt;span style=&quot;font-family: &amp;quot;Segoe WPC&amp;quot;, &amp;quot;Segoe UI&amp;quot;, sans-serif; font-size: 13px; font-weight: 600; white-space: normal;&quot;&gt;HealthComponen&lt;/span&gt;t&lt;/span&gt;&lt;/p&gt;&lt;p style=&quot;margin:0px;margin-top:4px;text-align:center;&quot;&gt;&lt;span style=&quot;scrollbar-color: var(--vscode-scrollbarSlider-background,#424242) var(--vscode-editor-background,#1e1e1e); color: rgb(216, 222, 233); font-family: &amp;quot;Segoe WPC&amp;quot;, &amp;quot;Segoe UI&amp;quot;, sans-serif; font-size: 13px; text-align: left; background-color: rgb(10, 10, 10);&quot;&gt;生命值&lt;/span&gt;&lt;span style=&quot;scrollbar-color: var(--vscode-scrollbarSlider-background,#424242) var(--vscode-editor-background,#1e1e1e); color: rgb(216, 222, 233); font-family: &amp;quot;Segoe WPC&amp;quot;, &amp;quot;Segoe UI&amp;quot;, sans-serif; font-size: 13px; text-align: left; background-color: rgb(10, 10, 10);&quot;&gt;组件&lt;/span&gt;&lt;span style=&quot;scrollbar-color: var(--vscode-scrollbarSlider-background,#424242) var(--vscode-editor-background,#1e1e1e); color: rgb(216, 222, 233); font-family: &amp;quot;Segoe WPC&amp;quot;, &amp;quot;Segoe UI&amp;quot;, sans-serif; font-size: 13px; text-align: left; background-color: rgb(10, 10, 10);&quot;&gt;，管理&lt;/span&gt;&lt;span style=&quot;scrollbar-color: var(--vscode-scrollbarSlider-background,#424242) var(--vscode-editor-background,#1e1e1e); color: rgb(216, 222, 233); font-family: &amp;quot;Segoe WPC&amp;quot;, &amp;quot;Segoe UI&amp;quot;, sans-serif; font-size: 13px; text-align: left; background-color: rgb(10, 10, 10);&quot;&gt;角色&lt;/span&gt;&lt;span style=&quot;scrollbar-color: var(--vscode-scrollbarSlider-background,#424242) var(--vscode-editor-background,#1e1e1e); color: rgb(216, 222, 233); font-family: &amp;quot;Segoe WPC&amp;quot;, &amp;quot;Segoe UI&amp;quot;, sans-serif; font-size: 13px; text-align: left; background-color: rgb(10, 10, 10);&quot;&gt;血量&lt;/span&gt;&lt;span style=&quot;scrollbar-color: var(--vscode-scrollbarSlider-background,#424242) var(--vscode-editor-background,#1e1e1e); color: rgb(216, 222, 233); font-family: &amp;quot;Segoe WPC&amp;quot;, &amp;quot;Segoe UI&amp;quot;, sans-serif; font-size: 13px; text-align: left; background-color: rgb(10, 10, 10);&quot;&gt;等&lt;/span&gt;&lt;/p&gt;&lt;hr size=&quot;1&quot; style=&quot;border-style:solid;&quot;&gt;&lt;p style=&quot;margin:0px;margin-left:4px;&quot;&gt;+ field: Type&lt;/p&gt;&lt;hr size=&quot;1&quot; style=&quot;border-style:solid;&quot;&gt;&lt;p style=&quot;margin:0px;margin-left:4px;&quot;&gt;+ method(): Type&lt;/p&gt;" style="verticalAlign=top;align=left;overflow=fill;html=1;whiteSpace=wrap;" vertex="1" parent="1">
          <mxGeometry x="790" y="240" width="280" height="150" as="geometry" />
        </mxCell>
        <mxCell id="XCQQB1KWgZVBoyZFV7uq-20" value="&lt;p style=&quot;margin:0px;margin-top:4px;text-align:center;&quot;&gt;&lt;span style=&quot;background-color: rgb(10, 10, 10); color: rgb(216, 222, 233); font-family: Consolas, &amp;quot;Courier New&amp;quot;, monospace; font-size: 14px; white-space: pre; text-align: left;&quot;&gt;&lt;span style=&quot;white-space: normal; scrollbar-color: var(--vscode-scrollbarSlider-background,#424242) var(--vscode-editor-background,#1e1e1e); font-family: &amp;quot;Segoe WPC&amp;quot;, &amp;quot;Segoe UI&amp;quot;, sans-serif; font-size: 13px; font-weight: 600;&quot;&gt;Camera&lt;/span&gt;&lt;span style=&quot;white-space: normal; scrollbar-color: var(--vscode-scrollbarSlider-background,#424242) var(--vscode-editor-background,#1e1e1e); font-family: &amp;quot;Segoe WPC&amp;quot;, &amp;quot;Segoe UI&amp;quot;, sans-serif; font-size: 13px; font-weight: 600;&quot;&gt;Componen&lt;/span&gt;t&lt;/span&gt;&lt;/p&gt;&lt;p style=&quot;margin:0px;margin-top:4px;text-align:center;&quot;&gt;&lt;span style=&quot;scrollbar-color: var(--vscode-scrollbarSlider-background,#424242) var(--vscode-editor-background,#1e1e1e); color: rgb(216, 222, 233); font-family: &amp;quot;Segoe WPC&amp;quot;, &amp;quot;Segoe UI&amp;quot;, sans-serif; font-size: 13px; text-align: left; background-color: rgb(10, 10, 10);&quot;&gt;摄像&lt;/span&gt;&lt;span style=&quot;scrollbar-color: var(--vscode-scrollbarSlider-background,#424242) var(--vscode-editor-background,#1e1e1e); color: rgb(216, 222, 233); font-family: &amp;quot;Segoe WPC&amp;quot;, &amp;quot;Segoe UI&amp;quot;, sans-serif; font-size: 13px; text-align: left; background-color: rgb(10, 10, 10);&quot;&gt;机&lt;/span&gt;&lt;span style=&quot;scrollbar-color: var(--vscode-scrollbarSlider-background,#424242) var(--vscode-editor-background,#1e1e1e); color: rgb(216, 222, 233); font-family: &amp;quot;Segoe WPC&amp;quot;, &amp;quot;Segoe UI&amp;quot;, sans-serif; font-size: 13px; text-align: left; background-color: rgb(10, 10, 10);&quot;&gt;组件&lt;/span&gt;&lt;/p&gt;&lt;hr size=&quot;1&quot; style=&quot;border-style:solid;&quot;&gt;&lt;p style=&quot;margin:0px;margin-left:4px;&quot;&gt;+ field: Type&lt;/p&gt;&lt;hr size=&quot;1&quot; style=&quot;border-style:solid;&quot;&gt;&lt;p style=&quot;margin:0px;margin-left:4px;&quot;&gt;+ method(): Type&lt;/p&gt;" style="verticalAlign=top;align=left;overflow=fill;html=1;whiteSpace=wrap;" vertex="1" parent="1">
          <mxGeometry x="790" y="427.5" width="280" height="150" as="geometry" />
        </mxCell>
        <mxCell id="XCQQB1KWgZVBoyZFV7uq-21" value="&lt;p style=&quot;margin:0px;margin-top:4px;text-align:center;&quot;&gt;&lt;span style=&quot;scrollbar-color: var(--vscode-scrollbarSlider-background,#424242) var(--vscode-editor-background,#1e1e1e); color: rgb(216, 222, 233); font-family: &amp;quot;Segoe WPC&amp;quot;, &amp;quot;Segoe UI&amp;quot;, sans-serif; font-size: 13px; font-weight: 600; text-align: left; background-color: rgb(10, 10, 10);&quot;&gt;&lt;span style=&quot;font-family: Consolas, &amp;quot;Courier New&amp;quot;, monospace; font-size: 14px; white-space: pre; font-weight: normal;&quot;&gt;FLyraReplicatedAcceleration&lt;/span&gt;&lt;/span&gt;&lt;/p&gt;&lt;p style=&quot;margin:0px;margin-top:4px;text-align:center;&quot;&gt;&lt;span style=&quot;scrollbar-color: var(--vscode-scrollbarSlider-background,#424242) var(--vscode-editor-background,#1e1e1e); color: rgb(216, 222, 233); font-family: &amp;quot;Segoe WPC&amp;quot;, &amp;quot;Segoe UI&amp;quot;, sans-serif; font-size: 13px; text-align: left; background-color: rgb(10, 10, 10);&quot;&gt;网络同步的&lt;/span&gt;&lt;span style=&quot;scrollbar-color: var(--vscode-scrollbarSlider-background,#424242) var(--vscode-editor-background,#1e1e1e); color: rgb(216, 222, 233); font-family: &amp;quot;Segoe WPC&amp;quot;, &amp;quot;Segoe UI&amp;quot;, sans-serif; font-size: 13px; text-align: left; background-color: rgb(10, 10, 10);&quot;&gt;加&lt;/span&gt;&lt;span style=&quot;scrollbar-color: var(--vscode-scrollbarSlider-background,#424242) var(--vscode-editor-background,#1e1e1e); color: rgb(216, 222, 233); font-family: &amp;quot;Segoe WPC&amp;quot;, &amp;quot;Segoe UI&amp;quot;, sans-serif; font-size: 13px; text-align: left; background-color: rgb(10, 10, 10);&quot;&gt;速度&lt;/span&gt;&lt;span style=&quot;scrollbar-color: var(--vscode-scrollbarSlider-background,#424242) var(--vscode-editor-background,#1e1e1e); color: rgb(216, 222, 233); font-family: &amp;quot;Segoe WPC&amp;quot;, &amp;quot;Segoe UI&amp;quot;, sans-serif; font-size: 13px; text-align: left; background-color: rgb(10, 10, 10);&quot;&gt;数据&lt;/span&gt;&lt;/p&gt;&lt;hr size=&quot;1&quot; style=&quot;border-style:solid;&quot;&gt;&lt;p style=&quot;margin:0px;margin-left:4px;&quot;&gt;+ field: Type&lt;/p&gt;&lt;hr size=&quot;1&quot; style=&quot;border-style:solid;&quot;&gt;&lt;p style=&quot;margin:0px;margin-left:4px;&quot;&gt;+ method(): Type&lt;/p&gt;" style="verticalAlign=top;align=left;overflow=fill;html=1;whiteSpace=wrap;" vertex="1" parent="1">
          <mxGeometry x="790" y="620" width="280" height="150" as="geometry" />
        </mxCell>
        <mxCell id="XCQQB1KWgZVBoyZFV7uq-22" value="&lt;p style=&quot;margin:0px;margin-top:4px;text-align:center;&quot;&gt;&lt;span style=&quot;scrollbar-color: var(--vscode-scrollbarSlider-background,#424242) var(--vscode-editor-background,#1e1e1e); color: rgb(216, 222, 233); font-family: &amp;quot;Segoe WPC&amp;quot;, &amp;quot;Segoe UI&amp;quot;, sans-serif; font-size: 13px; font-weight: 600; text-align: left; background-color: rgb(10, 10, 10);&quot;&gt;&lt;span style=&quot;font-family: Consolas, &amp;quot;Courier New&amp;quot;, monospace; font-size: 14px; white-space: pre; font-weight: normal;&quot;&gt;FGenericTeamId&lt;/span&gt;&lt;/span&gt;&lt;/p&gt;&lt;p style=&quot;margin:0px;margin-top:4px;text-align:center;&quot;&gt;&lt;span style=&quot;scrollbar-color: var(--vscode-scrollbarSlider-background,#424242) var(--vscode-editor-background,#1e1e1e); color: rgb(216, 222, 233); font-family: &amp;quot;Segoe WPC&amp;quot;, &amp;quot;Segoe UI&amp;quot;, sans-serif; font-size: 13px; text-align: left; background-color: rgb(10, 10, 10);&quot;&gt;团队&lt;/span&gt;&lt;span style=&quot;scrollbar-color: var(--vscode-scrollbarSlider-background,#424242) var(--vscode-editor-background,#1e1e1e); color: rgb(216, 222, 233); font-family: &amp;quot;Segoe WPC&amp;quot;, &amp;quot;Segoe UI&amp;quot;, sans-serif; font-size: 13px; text-align: left; background-color: rgb(10, 10, 10);&quot;&gt;&amp;nbsp;ID&lt;/span&gt;&lt;span style=&quot;scrollbar-color: var(--vscode-scrollbarSlider-background,#424242) var(--vscode-editor-background,#1e1e1e); color: rgb(216, 222, 233); font-family: &amp;quot;Segoe WPC&amp;quot;, &amp;quot;Segoe UI&amp;quot;, sans-serif; font-size: 13px; text-align: left; background-color: rgb(10, 10, 10);&quot;&gt;，支持&lt;/span&gt;&lt;span style=&quot;scrollbar-color: var(--vscode-scrollbarSlider-background,#424242) var(--vscode-editor-background,#1e1e1e); color: rgb(216, 222, 233); font-family: &amp;quot;Segoe WPC&amp;quot;, &amp;quot;Segoe UI&amp;quot;, sans-serif; font-size: 13px; text-align: left; background-color: rgb(10, 10, 10);&quot;&gt;团队&lt;/span&gt;&lt;span style=&quot;scrollbar-color: var(--vscode-scrollbarSlider-background,#424242) var(--vscode-editor-background,#1e1e1e); color: rgb(216, 222, 233); font-family: &amp;quot;Segoe WPC&amp;quot;, &amp;quot;Segoe UI&amp;quot;, sans-serif; font-size: 13px; text-align: left; background-color: rgb(10, 10, 10);&quot;&gt;玩法&lt;/span&gt;&lt;/p&gt;&lt;hr size=&quot;1&quot; style=&quot;border-style:solid;&quot;&gt;&lt;p style=&quot;margin:0px;margin-left:4px;&quot;&gt;+ field: Type&lt;/p&gt;&lt;hr size=&quot;1&quot; style=&quot;border-style:solid;&quot;&gt;&lt;p style=&quot;margin:0px;margin-left:4px;&quot;&gt;+ method(): Type&lt;/p&gt;" style="verticalAlign=top;align=left;overflow=fill;html=1;whiteSpace=wrap;" vertex="1" parent="1">
          <mxGeometry x="790" y="810" width="280" height="150" as="geometry" />
        </mxCell>
        <mxCell id="XCQQB1KWgZVBoyZFV7uq-23" value="&lt;p style=&quot;margin:0px;margin-top:4px;text-align:center;&quot;&gt;&lt;span style=&quot;scrollbar-color: var(--vscode-scrollbarSlider-background,#424242) var(--vscode-editor-background,#1e1e1e); color: rgb(216, 222, 233); font-family: &amp;quot;Segoe WPC&amp;quot;, &amp;quot;Segoe UI&amp;quot;, sans-serif; font-size: 13px; font-weight: 600; text-align: left; background-color: rgb(10, 10, 10);&quot;&gt;&lt;span style=&quot;font-family: Consolas, &amp;quot;Courier New&amp;quot;, monospace; font-size: 14px; white-space: pre; font-weight: normal;&quot;&gt;FOnLyraTeamIndexChangedDelegate&lt;/span&gt;&lt;/span&gt;&lt;/p&gt;&lt;p style=&quot;margin:0px;margin-top:4px;text-align:center;&quot;&gt;&lt;span style=&quot;scrollbar-color: var(--vscode-scrollbarSlider-background,#424242) var(--vscode-editor-background,#1e1e1e); color: rgb(216, 222, 233); font-family: &amp;quot;Segoe WPC&amp;quot;, &amp;quot;Segoe UI&amp;quot;, sans-serif; font-size: 13px; text-align: left; background-color: rgb(10, 10, 10);&quot;&gt;团队&lt;/span&gt;&lt;span style=&quot;scrollbar-color: var(--vscode-scrollbarSlider-background,#424242) var(--vscode-editor-background,#1e1e1e); color: rgb(216, 222, 233); font-family: &amp;quot;Segoe WPC&amp;quot;, &amp;quot;Segoe UI&amp;quot;, sans-serif; font-size: 13px; text-align: left; background-color: rgb(10, 10, 10);&quot;&gt;变&lt;/span&gt;&lt;span style=&quot;scrollbar-color: var(--vscode-scrollbarSlider-background,#424242) var(--vscode-editor-background,#1e1e1e); color: rgb(216, 222, 233); font-family: &amp;quot;Segoe WPC&amp;quot;, &amp;quot;Segoe UI&amp;quot;, sans-serif; font-size: 13px; text-align: left; background-color: rgb(10, 10, 10);&quot;&gt;更事件&lt;/span&gt;&lt;/p&gt;&lt;hr size=&quot;1&quot; style=&quot;border-style:solid;&quot;&gt;&lt;p style=&quot;margin:0px;margin-left:4px;&quot;&gt;+ field: Type&lt;/p&gt;&lt;hr size=&quot;1&quot; style=&quot;border-style:solid;&quot;&gt;&lt;p style=&quot;margin:0px;margin-left:4px;&quot;&gt;+ method(): Type&lt;/p&gt;" style="verticalAlign=top;align=left;overflow=fill;html=1;whiteSpace=wrap;" vertex="1" parent="1">
          <mxGeometry x="790" y="1019" width="280" height="150" as="geometry" />
        </mxCell>
        <mxCell id="XCQQB1KWgZVBoyZFV7uq-24" value="&lt;p style=&quot;margin:0px;margin-top:4px;text-align:center;&quot;&gt;&lt;span style=&quot;scrollbar-color: var(--vscode-scrollbarSlider-background,#424242) var(--vscode-editor-background,#1e1e1e); color: rgb(216, 222, 233); font-family: &amp;quot;Segoe WPC&amp;quot;, &amp;quot;Segoe UI&amp;quot;, sans-serif; font-size: 13px; font-weight: 600; text-align: left; background-color: rgb(10, 10, 10);&quot;&gt;&lt;span style=&quot;font-family: Consolas, &amp;quot;Courier New&amp;quot;, monospace; font-size: 14px; white-space: pre; font-weight: normal;&quot;&gt;FSharedRepMovement&lt;/span&gt;&lt;/span&gt;&lt;/p&gt;&lt;p style=&quot;text-align: center; margin: 4px 0px 0px;&quot;&gt;网络同步，包括上一次的同步信息，防止同步过于频繁&lt;/p&gt;&lt;hr size=&quot;1&quot; style=&quot;border-style:solid;&quot;&gt;&lt;p style=&quot;margin:0px;margin-left:4px;&quot;&gt;+ field: Type&lt;/p&gt;&lt;hr size=&quot;1&quot; style=&quot;border-style:solid;&quot;&gt;&lt;p style=&quot;margin:0px;margin-left:4px;&quot;&gt;+ method(): Type&lt;/p&gt;" style="verticalAlign=top;align=left;overflow=fill;html=1;whiteSpace=wrap;" vertex="1" parent="1">
          <mxGeometry x="770" y="1230" width="320" height="150" as="geometry" />
        </mxCell>
        <mxCell id="XCQQB1KWgZVBoyZFV7uq-29" value="" style="endArrow=diamondThin;endFill=1;endSize=24;html=1;rounded=0;exitX=0;exitY=0.5;exitDx=0;exitDy=0;entryX=1.003;entryY=0.579;entryDx=0;entryDy=0;entryPerimeter=0;" edge="1" parent="1" source="XCQQB1KWgZVBoyZFV7uq-18" target="XCQQB1KWgZVBoyZFV7uq-1">
          <mxGeometry width="160" relative="1" as="geometry">
            <mxPoint x="610" y="190" as="sourcePoint" />
            <mxPoint x="650" y="505" as="targetPoint" />
          </mxGeometry>
        </mxCell>
        <mxCell id="XCQQB1KWgZVBoyZFV7uq-30" value="" style="endArrow=diamondThin;endFill=1;endSize=24;html=1;rounded=0;exitX=0;exitY=0.5;exitDx=0;exitDy=0;entryX=1;entryY=0.57;entryDx=0;entryDy=0;entryPerimeter=0;" edge="1" parent="1" source="XCQQB1KWgZVBoyZFV7uq-19" target="XCQQB1KWgZVBoyZFV7uq-1">
          <mxGeometry width="160" relative="1" as="geometry">
            <mxPoint x="819" y="630" as="sourcePoint" />
            <mxPoint x="590" y="1248" as="targetPoint" />
          </mxGeometry>
        </mxCell>
        <mxCell id="XCQQB1KWgZVBoyZFV7uq-32" value="" style="endArrow=diamondThin;endFill=1;endSize=24;html=1;rounded=0;exitX=0;exitY=0.5;exitDx=0;exitDy=0;entryX=1;entryY=0.602;entryDx=0;entryDy=0;entryPerimeter=0;" edge="1" parent="1" source="XCQQB1KWgZVBoyZFV7uq-24" target="XCQQB1KWgZVBoyZFV7uq-1">
          <mxGeometry width="160" relative="1" as="geometry">
            <mxPoint x="940" y="870" as="sourcePoint" />
            <mxPoint x="710" y="1285" as="targetPoint" />
          </mxGeometry>
        </mxCell>
        <mxCell id="XCQQB1KWgZVBoyZFV7uq-33" value="" style="endArrow=diamondThin;endFill=1;endSize=24;html=1;rounded=0;exitX=0;exitY=0.5;exitDx=0;exitDy=0;entryX=0.998;entryY=0.58;entryDx=0;entryDy=0;entryPerimeter=0;" edge="1" parent="1" source="XCQQB1KWgZVBoyZFV7uq-23" target="XCQQB1KWgZVBoyZFV7uq-1">
          <mxGeometry width="160" relative="1" as="geometry">
            <mxPoint x="930" y="870" as="sourcePoint" />
            <mxPoint x="700" y="1285" as="targetPoint" />
          </mxGeometry>
        </mxCell>
        <mxCell id="XCQQB1KWgZVBoyZFV7uq-34" value="" style="endArrow=diamondThin;endFill=1;endSize=24;html=1;rounded=0;exitX=0;exitY=0.5;exitDx=0;exitDy=0;entryX=0.998;entryY=0.576;entryDx=0;entryDy=0;entryPerimeter=0;" edge="1" parent="1" source="XCQQB1KWgZVBoyZFV7uq-22" target="XCQQB1KWgZVBoyZFV7uq-1">
          <mxGeometry width="160" relative="1" as="geometry">
            <mxPoint x="930" y="870" as="sourcePoint" />
            <mxPoint x="700" y="1285" as="targetPoint" />
          </mxGeometry>
        </mxCell>
        <mxCell id="XCQQB1KWgZVBoyZFV7uq-35" value="" style="endArrow=diamondThin;endFill=1;endSize=24;html=1;rounded=0;exitX=0;exitY=0.5;exitDx=0;exitDy=0;entryX=0.994;entryY=0.592;entryDx=0;entryDy=0;entryPerimeter=0;" edge="1" parent="1" source="XCQQB1KWgZVBoyZFV7uq-21" target="XCQQB1KWgZVBoyZFV7uq-1">
          <mxGeometry width="160" relative="1" as="geometry">
            <mxPoint x="930" y="870" as="sourcePoint" />
            <mxPoint x="700" y="1285" as="targetPoint" />
          </mxGeometry>
        </mxCell>
        <mxCell id="XCQQB1KWgZVBoyZFV7uq-36" value="" style="endArrow=diamondThin;endFill=1;endSize=24;html=1;rounded=0;exitX=0;exitY=0.5;exitDx=0;exitDy=0;entryX=0.997;entryY=0.576;entryDx=0;entryDy=0;entryPerimeter=0;" edge="1" parent="1" source="XCQQB1KWgZVBoyZFV7uq-20" target="XCQQB1KWgZVBoyZFV7uq-1">
          <mxGeometry width="160" relative="1" as="geometry">
            <mxPoint x="930" y="870" as="sourcePoint" />
            <mxPoint x="700" y="1285" as="targetPoint" />
          </mxGeometry>
        </mxCell>
      </root>
    </mxGraphModel>
  </diagram>
</mxfile>
